# xmcd
#
# Track frame offsets: 
#        150
#        13553
#        29309
#        47124
#        63336
#        79358
#        99433
#        108895
#        124517
#        143094
#        159101
#        178604
#        191425
#
# Disc length: 2703 seconds
#
# Revision: 1
# Processed by: cddbd v1.4PL0 Copyright (c) Steve Scherf et al.
# Submitted via: ExactAudioCopy v0.95a4
#
DISCID=9b0a8d0d
DTITLE=Honeyboy Edwards - Mississippi Delta Bluesman
DYEAR=2001
DGENRE=Blues
TTITLE0=Big Fat Mama
TTITLE1=Catfish Blues
TTITLE2=Sweet Home Chicago/Dust My Broom
TTITLE3=Blues Worry Me All The Time
TTITLE4=Ride With Me Tonight
TTITLE5=Next Time You See Me
TTITLE6=Remarks By Honeyboy Edwards
TTITLE7=Pony Blues
TTITLE8=Things Gonna Be Alright
TTITLE9=I Feel So Good Today
TTITLE10=Further On Up The Road
TTITLE11=You're The One For Me
TTITLE12=Bumble Bee
EXTD=Smithsonian Flokways Rocodrings
EXTT0=
EXTT1=
EXTT2=
EXTT3=
EXTT4=
EXTT5=
EXTT6=
EXTT7=
EXTT8=
EXTT9=
EXTT10=
EXTT11=
EXTT12=
PLAYORDER=
